<svg width="34" height="28" viewBox="0 0 34 28" fill="none" xmlns="http://www.w3.org/2000/svg">
<path d="M1.25 10.5H32.75H1.25ZM8.25 19.25H10H8.25ZM17 19.25H18.75H17ZM6.5 26.25H27.5C28.8924 26.25 30.2277 25.6969 31.2123 24.7123C32.1969 23.7277 32.75 22.3924 32.75 21V7C32.75 5.60761 32.1969 4.27226 31.2123 3.28769C30.2277 2.30312 28.8924 1.75 27.5 1.75H6.5C5.10761 1.75 3.77226 2.30312 2.78769 3.28769C1.80312 4.27226 1.25 5.60761 1.25 7V21C1.25 22.3924 1.80312 23.7277 2.78769 24.7123C3.77226 25.6969 5.10761 26.25 6.5 26.25Z" stroke="white" stroke-width="2" stroke-linecap="round" stroke-linejoin="round"/>
</svg>
