<svg width="64" height="49" viewBox="0 0 64 49" fill="none" xmlns="http://www.w3.org/2000/svg">
<path d="M49.2222 14.4286V7.71429C49.2222 5.93355 48.4964 4.22574 47.2045 2.96657C45.9126 1.7074 44.1604 1 42.3333 1H7.88889C6.06184 1 4.30963 1.7074 3.01771 2.96657C1.72579 4.22574 1 5.93355 1 7.71429V27.8571C1 29.6379 1.72579 31.3457 3.01771 32.6049C4.30963 33.864 6.06184 34.5714 7.88889 34.5714H14.7778L49.2222 14.4286ZM21.6667 48H56.1111C57.9382 48 59.6904 47.2926 60.9823 46.0334C62.2742 44.7743 63 43.0665 63 41.2857V21.1429C63 19.3621 62.2742 17.6543 60.9823 16.3951C59.6904 15.136 57.9382 14.4286 56.1111 14.4286H21.6667C19.8396 14.4286 18.0874 15.136 16.7955 16.3951C15.5036 17.6543 14.7778 19.3621 14.7778 21.1429V41.2857C14.7778 43.0665 15.5036 44.7743 16.7955 46.0334C18.0874 47.2926 19.8396 48 21.6667 48ZM45.7778 31.2143C45.7778 32.995 45.052 34.7028 43.7601 35.962C42.4682 37.2212 40.7159 37.9286 38.8889 37.9286C37.0618 37.9286 35.3096 37.2212 34.0177 35.962C32.7258 34.7028 32 32.995 32 31.2143C32 29.4335 32.7258 27.7257 34.0177 26.4666C35.3096 25.2074 37.0618 24.5 38.8889 24.5C40.7159 24.5 42.4682 25.2074 43.7601 26.4666C45.052 27.7257 45.7778 29.4335 45.7778 31.2143V31.2143Z" stroke="white" stroke-width="2" stroke-linecap="round" stroke-linejoin="round"/>
</svg>
