<svg width="34" height="34" viewBox="0 0 34 34" fill="none" xmlns="http://www.w3.org/2000/svg">
<path d="M17 3.6195C17.9405 2.55323 19.1834 1.79864 20.5634 1.45614C21.9433 1.11364 23.3948 1.19947 24.7248 1.7022C26.0547 2.20494 27.2 3.10075 28.0083 4.27043C28.8167 5.44011 29.2496 6.8282 29.2496 8.25C29.2496 9.6718 28.8167 11.0599 28.0083 12.2296C27.2 13.3993 26.0547 14.2951 24.7248 14.7978C23.3948 15.3005 21.9433 15.3864 20.5634 15.0439C19.1834 14.7014 17.9405 13.9468 17 12.8805V3.6195ZM22.25 32.75H1.25V31C1.25 28.2152 2.35625 25.5445 4.32538 23.5754C6.29451 21.6062 8.96523 20.5 11.75 20.5C14.5348 20.5 17.2055 21.6062 19.1746 23.5754C21.1438 25.5445 22.25 28.2152 22.25 31V32.75ZM22.25 32.75H32.75V31C32.7503 29.1567 32.2653 27.3459 31.3438 25.7495C30.4224 24.1531 29.0969 22.8274 27.5006 21.9056C25.9044 20.9839 24.0936 20.4986 22.2504 20.4985C20.4071 20.4985 18.5963 20.9836 17 21.9053L22.25 32.75ZM18.75 8.25C18.75 10.1065 18.0125 11.887 16.6997 13.1997C15.387 14.5125 13.6065 15.25 11.75 15.25C9.89348 15.25 8.11301 14.5125 6.80025 13.1997C5.4875 11.887 4.75 10.1065 4.75 8.25C4.75 6.39349 5.4875 4.61301 6.80025 3.30025C8.11301 1.9875 9.89348 1.25 11.75 1.25C13.6065 1.25 15.387 1.9875 16.6997 3.30025C18.0125 4.61301 18.75 6.39349 18.75 8.25V8.25Z" stroke="white" stroke-width="2" stroke-linecap="round" stroke-linejoin="round"/>
</svg>
